<?xml version="1.0" encoding="UTF-8" standalone="no"?>
<!DOCTYPE svg PUBLIC "-//W3C//DTD SVG 1.1//EN" "http://www.w3.org/Graphics/SVG/1.1/DTD/svg11.dtd">
<svg width="100%" height="100%" viewBox="0 0 512 512" version="1.1" xmlns="http://www.w3.org/2000/svg" xmlns:xlink="http://www.w3.org/1999/xlink" xml:space="preserve" xmlns:serif="http://www.serif.com/" style="fill-rule:evenodd;clip-rule:evenodd;stroke-linejoin:round;stroke-miterlimit:2;">
    <path d="M480.621,283.686C478.545,286.394 475.327,287.982 471.914,287.982C461.279,288 436.133,288 415.897,288C411.005,288 406.596,285.053 404.724,280.534C402.852,276.015 403.887,270.813 407.345,267.355C418.127,256.573 429.1,245.6 429.1,245.6C432.2,242.5 432.2,237.4 429.1,234.3L277.7,82.9C274.6,79.8 269.5,79.8 266.4,82.9L213.3,136L262.7,185.4C275.2,197.9 275.2,218.2 262.7,230.7C250.2,243.2 229.9,243.2 217.4,230.7L168,181.3L75.9,273.4C71.7,277.6 68.9,282.6 67.5,288L263.912,288C270.3,288 276.427,290.538 280.945,295.055C285.462,299.573 288,305.7 288,312.088L288,471.499C288,475.212 286.525,478.773 283.9,481.4C283.9,481.4 283.9,481.4 283.9,481.4C246.4,518.9 185.6,518.9 148.1,481.4L30.6,363.9C-6.9,326.4 -6.9,265.6 30.6,228.1L122.7,136L41.4,54.7C28.9,42.2 28.9,21.9 41.4,9.4C53.9,-3.1 74.1,-3.1 86.6,9.4L168,90.7L221.1,37.7C249.2,9.6 294.8,9.6 322.9,37.7L474.3,189.1C500.106,214.906 502.213,255.47 480.621,283.686Z" style="fill-rule:nonzero;"/>
    <g transform="matrix(1,0,0,1,144,144)">
        <path d="M232,344L232,280L168,280C154.7,280 144,269.3 144,256C144,242.7 154.7,232 168,232L232,232L232,168C232,154.7 242.7,144 256,144C269.3,144 280,154.7 280,168L280,232L344,232C357.3,232 368,242.7 368,256C368,269.3 357.3,280 344,280L280,280L280,344C280,357.3 269.3,368 256,368C242.7,368 232,357.3 232,344Z" style="fill-rule:nonzero;"/>
    </g>
</svg>
