<?xml version="1.0" encoding="UTF-8" standalone="no"?>
<!DOCTYPE svg PUBLIC "-//W3C//DTD SVG 1.1//EN" "http://www.w3.org/Graphics/SVG/1.1/DTD/svg11.dtd">
<svg width="100%" height="100%" viewBox="0 0 512 512" version="1.1" xmlns="http://www.w3.org/2000/svg" xmlns:xlink="http://www.w3.org/1999/xlink" xml:space="preserve" xmlns:serif="http://www.serif.com/" style="fill-rule:evenodd;clip-rule:evenodd;stroke-linejoin:round;stroke-miterlimit:2;">
    <path d="M256,462.643C256,467.247 254.171,471.661 250.916,474.916C247.661,478.171 243.247,480 238.643,480L64,480C28.7,480 0,451.3 0,416L0,96C0,60.7 28.7,32 64,32L196.1,32C215.2,32 233.5,39.6 247,53.1L289.9,96L448,96C483.3,96 512,124.7 512,160L512,238.643C512,243.247 510.171,247.661 506.916,250.916C503.661,254.171 499.247,256 494.643,256L481.357,256C476.753,256 472.339,254.171 469.084,250.916C465.829,247.661 464,243.247 464,238.643L464,160C464,151.2 456.8,144 448,144L286.6,144C276,144 265.8,139.8 258.3,132.3L213.1,87C208.6,82.5 202.5,80 196.1,80L64,80C55.2,80 48,87.2 48,96L48,416C48,424.8 55.2,432 64,432L238.643,432C243.247,432 247.661,433.829 250.916,437.084C254.171,440.339 256,444.753 256,449.357C256,453.681 256,458.319 256,462.643Z" style="fill-rule:nonzero;"/>
    <g transform="matrix(1,0,0,1,144,144)">
        <path d="M232,344L232,280L168,280C154.7,280 144,269.3 144,256C144,242.7 154.7,232 168,232L232,232L232,168C232,154.7 242.7,144 256,144C269.3,144 280,154.7 280,168L280,232L344,232C357.3,232 368,242.7 368,256C368,269.3 357.3,280 344,280L280,280L280,344C280,357.3 269.3,368 256,368C242.7,368 232,357.3 232,344Z" style="fill-rule:nonzero;"/>
    </g>
</svg>
