<?xml version="1.0" encoding="UTF-8" standalone="no"?>
<!DOCTYPE svg PUBLIC "-//W3C//DTD SVG 1.1//EN" "http://www.w3.org/Graphics/SVG/1.1/DTD/svg11.dtd">
<svg width="100%" height="100%" viewBox="0 0 512 512" version="1.1" xmlns="http://www.w3.org/2000/svg" xmlns:xlink="http://www.w3.org/1999/xlink" xml:space="preserve" xmlns:serif="http://www.serif.com/" style="fill-rule:evenodd;clip-rule:evenodd;stroke-linejoin:round;stroke-miterlimit:2;">
    <g transform="matrix(-1,0,0,0.81893,512,46.3539)">
        <path d="M268,20.327C268,16.283 265.311,13 262,13L250,13C246.689,13 244,16.283 244,20.327L244,491.673C244,495.717 246.689,499 250,499L262,499C265.311,499 268,495.717 268,491.673L268,20.327Z"/>
    </g>
    <g transform="matrix(-1,0,0,0.832636,509,39.5146)">
        <path d="M217,77.447C217,46.293 195.94,21 170,21L76,21C50.06,21 29,46.293 29,77.447L29,442.553C29,473.707 50.06,499 76,499L170,499C195.94,499 217,473.707 217,442.553L217,77.447Z"/>
    </g>
    <g transform="matrix(-1,0,0,0.81893,512,46.3539)">
        <path d="M480,60C480,34.06 458.94,13 433,13L339,13C313.06,13 292,34.06 292,60L292,452C292,477.94 313.06,499 339,499L433,499C458.94,499 480,477.94 480,452L480,60ZM455.5,69.75C455.5,50.571 439.929,35 420.75,35L351.25,35C332.071,35 316.5,50.571 316.5,69.75L316.5,436.25C316.5,455.429 332.071,471 351.25,471L420.75,471C439.929,471 455.5,455.429 455.5,436.25L455.5,69.75Z"/>
    </g>
</svg>
