<?xml version="1.0" encoding="UTF-8" standalone="no"?>
<!DOCTYPE svg PUBLIC "-//W3C//DTD SVG 1.1//EN" "http://www.w3.org/Graphics/SVG/1.1/DTD/svg11.dtd">
<svg width="100%" height="100%" viewBox="0 0 512 512" version="1.1" xmlns="http://www.w3.org/2000/svg" xmlns:xlink="http://www.w3.org/1999/xlink" xml:space="preserve" xmlns:serif="http://www.serif.com/" style="fill-rule:evenodd;clip-rule:evenodd;stroke-linejoin:round;stroke-miterlimit:2;">
    <path d="M256,465.351C256,469.236 254.457,472.962 251.709,475.709C248.962,478.457 245.236,480 241.351,480C201.833,480 96,480 96,480C60.7,480 32,451.3 32,416L32,96C32,60.7 60.7,32 96,32L416,32C451.3,32 480,60.7 480,96L480,241.351C480,245.236 478.457,248.962 475.709,251.709C472.962,254.457 469.236,256 465.351,256C459.418,256 452.582,256 446.649,256C442.764,256 439.038,254.457 436.291,251.709C433.543,248.962 432,245.236 432,241.351C432,201.833 432,96 432,96C432,87.2 424.8,80 416,80L96,80C87.2,80 80,87.2 80,96L80,416C80,424.8 87.2,432 96,432L241.351,432C245.236,432 248.962,433.543 251.709,436.291C254.457,439.038 256,442.764 256,446.649C256,452.582 256,459.418 256,465.351Z" style="fill-rule:nonzero;"/>
    <g transform="matrix(1,0,0,1,144,144)">
        <path d="M232,344L232,280L168,280C154.7,280 144,269.3 144,256C144,242.7 154.7,232 168,232L232,232L232,168C232,154.7 242.7,144 256,144C269.3,144 280,154.7 280,168L280,232L344,232C357.3,232 368,242.7 368,256C368,269.3 357.3,280 344,280L280,280L280,344C280,357.3 269.3,368 256,368C242.7,368 232,357.3 232,344Z" style="fill-rule:nonzero;"/>
    </g>
</svg>
